<svg xmlns="http://www.w3.org/2000/svg" xml:space="preserve" width="2048" height="2048" style="shape-rendering:geometricPrecision;text-rendering:geometricPrecision;image-rendering:optimizeQuality;fill-rule:evenodd;clip-rule:evenodd"><defs><clipPath id="id0"><path d="M1024 0c565.541 0 1024 458.459 1024 1024 0 565.541-458.459 1024-1024 1024C458.459 2048 0 1589.541 0 1024 0 458.459 458.459 0 1024 0z"/></clipPath><style>.fil1{fill:#283593}</style></defs><g id="Layer_x0020_1"><path d="M1024 0c565.541 0 1024 458.459 1024 1024 0 565.541-458.459 1024-1024 1024C458.459 2048 0 1589.541 0 1024 0 458.459 458.459 0 1024 0z" style="fill:#3949ab"/><g style="clip-path:url(#id0)"><g id="_308724712"><path id="_3021515281" class="fil1" d="M1542.23 673.922 2678.11 1809.8l2.66 3.17 2.59 3.22 2.51 3.29 2.43 3.35 2.35 3.4 2.27 3.46 2.19 3.52 2.1 3.58 2.02 3.62 1.93 3.68 1.85 3.73 1.76 3.78 1.67 3.82 1.57 3.87 1.49 3.91 1.39 3.96 1.3 4 1.2 4.04 1.1 4.08 1.01 4.12.9 4.15.8 4.19.7 4.22.6 4.25.49 4.28.39 4.31.28 4.34.16 4.37.06 4.39-.05 4.41-.17 4.44L1583.78 794.864l.17-4.435.05-4.413-.06-4.39-.17-4.366-.27-4.338-.39-4.312-.49-4.281-.6-4.252-.7-4.222-.8-4.187-.9-4.152-1.01-4.117-1.1-4.078-1.2-4.041-1.3-4-1.39-3.958-1.49-3.914-1.57-3.87-1.67-3.825-1.76-3.777-1.85-3.729-1.93-3.678-2.02-3.626-2.1-3.574-2.19-3.518-2.27-3.463-2.35-3.405-2.43-3.348-2.51-3.287-2.59-3.224z"/><path id="_302150904" class="fil1" d="M1476.81 856.92 2612.69 1992.8l-3.93-4.24-4.03-4.13-4.11-4.02-4.2-3.92-4.29-3.79-4.37-3.69-4.45-3.56-4.53-3.46-4.61-3.33-4.68-3.22-4.75-3.1-4.83-2.98-4.89-2.85-4.96-2.74-5.02-2.61-5.08-2.49-5.14-2.36-5.2-2.24-5.26-2.11-5.31-1.98-5.35-1.85-5.41-1.72-5.45-1.59-5.5-1.46-5.54-1.32-5.58-1.19-5.62-1.05-5.65-.92-5.69-.78-5.72-.64-5.75-.5-5.77-.36L1316.14 780.713l5.77.361 5.75.502 5.72.642 5.69.779 5.65.918 5.62 1.053 5.58 1.19 5.54 1.324 5.49 1.457 5.46 1.59 5.4 1.721 5.36 1.852 5.31 1.981 5.26 2.108 5.2 2.237 5.14 2.362 5.08 2.487 5.02 2.613 4.96 2.734 4.89 2.859 4.83 2.977 4.75 3.099 4.68 3.218 4.61 3.335 4.53 3.452 4.45 3.569 4.37 3.682 4.29 3.797 4.2 3.911 4.11 4.022 4.03 4.132z"/><path id="_302151816" class="fil1" d="M1528.45 911.408 2664.33 2047.29l-1.31 1.17-1.32 1.16-1.33 1.14-1.34 1.13-1.36 1.12-1.36 1.11-1.38 1.09-1.39 1.08L1517.66 920.404l1.39-1.078 1.37-1.091 1.37-1.106 1.36-1.118 1.34-1.131 1.33-1.144 1.32-1.158z"/><path id="_302151840" class="fil1" d="M1478.41 858.702 2614.29 1994.58l-1.6-1.78L1476.81 856.92z"/><path id="_302151888" class="fil1" d="M1312.12 587.991 2448 1723.87l1.55 1.82 1.52 1.83 1.49 1.86 1.46 1.88 1.43 1.91 1.41 1.92 1.37 1.95 1.35 1.97 1.32 1.99 1.28 2.01 1.26 2.04 1.22 2.05 1.2 2.07 1.16 2.09 1.13 2.11 1.1 2.13 1.07 2.15 1.03 2.17 1 2.19.97 2.2.94 2.22L1338.37 630.546l-.93-2.219-.97-2.203-1-2.185-1.03-2.167-1.07-2.15-1.1-2.129-1.13-2.112-1.16-2.092-1.2-2.073-1.22-2.053-1.26-2.032-1.28-2.013-1.32-1.991-1.35-1.969-1.37-1.949-1.41-1.926-1.43-1.904-1.46-1.882-1.49-1.859-1.52-1.835z"/><path id="_302151960" class="fil1" d="M1316.14 780.713 2452.02 1916.6l-2.25-.11-2.25-.08-2.26-.06-2.25-.03-2.25-.02-2.25.01-2.26.03-2.25.05-2.25.07-2.25.09-2.25.11-2.25.14-2.24.16-2.25.18-2.24.2-2.24.22-2.24.25-2.24.27-2.23.28-2.23.31-2.23.34-2.22.35-2.22.37-2.22.4-2.21.42-2.21.44-2.21.46-2.19.48-2.2.51-2.19.52-2.19.55-2.18.57L1244.74 788.2l2.18-.569 2.19-.55 2.19-.525 2.19-.506 2.2-.483 2.21-.462 2.21-.439 2.21-.418 2.22-.397 2.22-.374 2.22-.354 2.23-.331 2.23-.311 2.23-.288 2.24-.266 2.24-.246 2.24-.222 2.24-.202 2.25-.179 2.24-.159 2.25-.137 2.25-.114 2.25-.093 2.25-.071 2.25-.05 2.26-.028 2.25-.007 2.25.015 2.25.038 2.26.058 2.25.081z"/><path id="_302152224" class="fil1" d="m1197.9 752.81 1135.88 1135.88-1.71-1.85-1.73-1.83-1.75-1.81-1.78-1.79-1.79-1.77-1.82-1.75-1.84-1.73-1.86-1.7-1.88-1.69-1.91-1.66-1.92-1.64-1.94-1.62L1175.97 731.967l1.94 1.62 1.92 1.642 1.91 1.663 1.88 1.684 1.86 1.706 1.84 1.728 1.82 1.75 1.79 1.769 1.78 1.79 1.75 1.81 1.73 1.831z"/><path id="_302151600" class="fil1" d="M1175.97 731.967 2311.85 1867.85l-3.32-2.67-3.36-2.61-3.41-2.52-3.45-2.46-3.49-2.38-3.54-2.31-3.58-2.24-3.61-2.16-3.66-2.08-3.69-2.01-3.73-1.94-3.76-1.86-3.8-1.78-3.84-1.7-3.86-1.63-3.9-1.55-3.92-1.47-3.96-1.4-3.98-1.31-4.01-1.24-4.04-1.15-4.06-1.08-4.08-1-4.11-.91-4.13-.84-4.15-.75-4.17-.67-4.19-.59-4.2-.5-4.23-.43-4.23-.33-4.26-.26L1052.25 684.136l4.25.257 4.24.339 4.22.422 4.21.506 4.19.589 4.17.671 4.15.753 4.13.833 4.11.916 4.08.997 4.06 1.076 4.04 1.156 4.01 1.235 3.98 1.315 3.96 1.394 3.92 1.472 3.9 1.55 3.86 1.628 3.84 1.705 3.79 1.782 3.77 1.858 3.73 1.935 3.69 2.01 3.66 2.085 3.61 2.16 3.58 2.235 3.54 2.309 3.49 2.383 3.45 2.456 3.41 2.529 3.36 2.601z"/><path id="_302152704" class="fil1" d="m1244.74 788.2 1135.88 1135.88-1.11.3-1.11.31-1.11.31-1.11.31-1.1.33-1.11.32-1.1.33-1.1.34-1.1.35-1.1.35-1.1.35-1.09.36-1.09.37-1.09.37-1.09.37-1.09.38L1227.14 793.651l1.09-.382 1.09-.375 1.09-.371 1.09-.366 1.09-.36 1.1-.354 1.1-.349 1.1-.344 1.1-.338 1.1-.332 1.1-.327 1.11-.322 1.11-.316 1.11-.31 1.11-.305z"/><path id="_302152608" class="fil1" d="M1052.25 684.136 2188.13 1820.02l-5.05-.19-5.05-.07-5.03.04-5.03.18-5.01.28-5 .41-4.99.53-4.96.64-4.94.76-4.92.88-4.9.99-4.86 1.11-4.84 1.22-4.81 1.33-4.77 1.44-4.73 1.56-4.7 1.67-4.66 1.77-4.62 1.89-4.57 1.99-4.53 2.11-4.47 2.21-4.43 2.32-4.37 2.42-4.32 2.53-4.27 2.63-4.2 2.73-4.15 2.84-4.07 2.94-4.02 3.04-3.95 3.15-3.88 3.24L904.152 734.728l3.879-3.244 3.947-3.142 4.016-3.042 4.08-2.941 4.143-2.839 4.205-2.736 4.262-2.631 4.321-2.528 4.373-2.422 4.428-2.317 4.478-2.21 4.526-2.104 4.572-1.995 4.616-1.886 4.659-1.777 4.697-1.668 4.738-1.556 4.771-1.444 4.806-1.332 4.837-1.221 4.867-1.105 4.897-.991 4.92-.876 4.94-.76 4.96-.644 4.98-.526 5-.409 5.02-.289 5.03-.17 5.03-.05 5.05.071z"/><path id="_302152560" class="fil1" d="M904.152 734.728 2040.03 1870.61l-2.01 1.75-2 1.77-1.97 1.8-1.94 1.82-1.92 1.85-1.9 1.86-1.87 1.89-1.84 1.91-1.82 1.93-1.8 1.95-1.77 1.98-1.74 1.99-1.72 2.02-1.69 2.03-1.67 2.06-1.64 2.07-1.61 2.1-1.59 2.11-1.56 2.14-1.53 2.15-1.5 2.17-1.48 2.19-1.45 2.21-1.42 2.22-1.4 2.24-1.36 2.26-1.34 2.28-1.31 2.3-1.28 2.31-1.25 2.32-1.22 2.34-1.19 2.36L852.355 801.11l1.193-2.358 1.222-2.342 1.252-2.327 1.281-2.31 1.308-2.294 1.337-2.277 1.366-2.26 1.393-2.243 1.422-2.225 1.45-2.207 1.477-2.189 1.505-2.172 1.532-2.152 1.559-2.134 1.586-2.114 1.612-2.096 1.64-2.075 1.665-2.056 1.693-2.036 1.717-2.015 1.744-1.995 1.77-1.974 1.795-1.952 1.82-1.931 1.846-1.91 1.871-1.887 1.896-1.865 1.92-1.844 1.945-1.82 1.969-1.798 1.994-1.774z"/><path id="_302152968" class="fil1" d="M1583.78 794.864 2719.66 1930.75l-.27 4.38-.39 4.35-.49 4.31-.59 4.27-.7 4.23-.79 4.18-.9 4.15-1 4.09-1.1 4.05-1.19 4.01-1.29 3.96-1.38 3.91-1.48 3.86-1.56 3.81-1.66 3.76-1.74 3.71-1.83 3.65-1.92 3.6-2 3.55-2.08 3.49-2.16 3.44-2.25 3.37-2.32 3.32-2.4 3.26-2.48 3.2-2.55 3.14-2.63 3.08-2.7 3.01-2.77 2.95-2.83 2.88-2.91 2.82-2.97 2.75L1528.45 911.408l2.97-2.751 2.91-2.818 2.83-2.884 2.77-2.95 2.7-3.011 2.63-3.077 2.55-3.138 2.47-3.199 2.41-3.26 2.32-3.319 2.24-3.376 2.17-3.435 2.08-3.491 2-3.547 1.92-3.601 1.83-3.656 1.74-3.709 1.66-3.759 1.56-3.811 1.48-3.86 1.38-3.911 1.29-3.958 1.19-4.005 1.1-4.052 1-4.096.9-4.142.79-4.185.7-4.227.59-4.269.49-4.31.39-4.35z"/><path id="_302153040" class="fil1" d="M1179.85 768.042 2315.73 1903.92l1.94 2.14 1.91 2.17 1.87 2.2 1.84 2.22 1.81 2.25 1.77 2.28 1.74 2.31 1.7 2.34 1.67 2.36 1.63 2.39 1.6 2.41 1.55 2.44 1.53 2.46 1.48 2.49 1.45 2.51 1.41 2.54 1.37 2.56 1.33 2.58 1.29 2.6 1.26 2.63 1.21 2.65 1.18 2.67 1.13 2.69L1215.52 823.928l-1.14-2.69-1.17-2.67-1.21-2.649-1.26-2.627-1.29-2.604-1.33-2.582-1.37-2.559-1.41-2.537-1.45-2.513-1.49-2.487-1.52-2.464-1.56-2.439-1.59-2.414-1.63-2.387-1.67-2.362-1.7-2.335-1.74-2.308-1.77-2.281-1.81-2.252-1.84-2.225-1.87-2.196-1.91-2.167z"/><path id="_302152512" class="fil1" d="m1359.86 1120.53 1135.88 1135.88-3.82-3.93-3.92-3.85-4.01-3.75-4.1-3.65-4.19-3.56-4.27-3.46-4.36-3.36-4.44-3.25-4.53-3.16-4.61-3.04-4.68-2.94-4.76-2.82-4.83-2.71-4.91-2.6-4.98-2.49-5.05-2.36-5.12-2.25-5.18-2.12-5.25-2-5.31-1.88-5.37-1.74-5.43-1.62-5.49-1.49-5.55-1.35-5.6-1.22-5.65-1.08-5.71-.95-5.75-.8-5.8-.66-5.85-.52-5.89-.37-1135.88-1135.88 5.89.37 5.85.52 5.8.66 5.75.8 5.71.94 5.65 1.09 5.6 1.22 5.54 1.35 5.49 1.49 5.44 1.62 5.37 1.74 5.31 1.88 5.25 2 5.18 2.12 5.12 2.25 5.05 2.36 4.98 2.48 4.9 2.6 4.84 2.72 4.76 2.82 4.68 2.94 4.61 3.04 4.52 3.15 4.45 3.26 4.36 3.36 4.27 3.46 4.19 3.55 4.1 3.66 4.01 3.75 3.92 3.84z"/><path id="_302152656" class="fil1" d="M1445.91 1164.37 2581.8 2300.26l-1.13 1.01-1.14 1.01-1.15 1-1.15.99-1.16.98-1.17.97-1.17.97-1.18.96-1.19.95-1.2.94-1.2.94-1.21.92-1.22.92-1.22.91-1.23.9-1.24.89-1.25.88-1.25.88-1.26.86-1.26.86-1.27.85-1.28.84-1.28.83-1.29.83-1.3.81-1.3.8-1.31.8-1.32.79-1.32.78-1.33.77-1.33.76-1.34.75-1135.88-1135.88 1.34-.75 1.33-.76 1.33-.77 1.32-.78 1.32-.79 1.31-.8 1.3-.8 1.3-.82 1.29-.82 1.28-.83 1.28-.84 1.27-.85 1.26-.86 1.26-.87 1.25-.87 1.25-.88 1.23-.9 1.24-.9 1.22-.9 1.22-.92 1.21-.93 1.2-.93 1.2-.94 1.18-.95 1.19-.96 1.17-.97 1.17-.97 1.16-.99 1.15-.99 1.15-1 1.13-1z"/><path id="_302152680" class="fil1" d="m1205.45 1049.55 1135.88 1135.88-2.28-.1-2.27-.08-2.27-.06-2.27-.04-2.26-.01-2.25.01-2.25.03-2.25.05-2.24.07-2.24.1-2.23.12-2.22.14-2.23.16-2.21.18-2.21.2-2.2.22-2.2.25-2.19.26-2.19.29-2.17.31-2.18.32-2.16.35-2.16.37-2.15.39-2.15.41-2.14.43-2.13.45-2.13.47-2.11.49-2.12.51-2.1.52-2.09.55-1135.89-1135.88 2.1-.55 2.1-.53 2.11-.51 2.12-.48 2.13-.47 2.13-.45 2.14-.43 2.14-.41 2.16-.39 2.16-.37 2.16-.35 2.17-.33 2.18-.3 2.19-.29 2.19-.26 2.2-.25 2.2-.22 2.21-.21 2.21-.18 2.22-.16 2.23-.14 2.23-.11 2.24-.1 2.24-.07 2.24-.05 2.26-.03 2.25-.01 2.26.01 2.27.04 2.27.06 2.27.08z"/><path id="_302152848" class="fil1" d="m1053.08 1005.26 1135.89 1135.88-2.24-2.24-2.26-2.21-2.3-2.17-2.33-2.14-2.37-2.11-2.4-2.07-2.43-2.03L1036.76 990.29l2.43 2.032 2.4 2.068 2.37 2.104 2.33 2.139 2.3 2.177 2.26 2.21z"/><path id="_302152392" class="fil1" d="m1036.76 990.29 1135.88 1135.88-3.11-2.51-3.16-2.45-3.21-2.39-3.27-2.33-3.3-2.27-3.36-2.21-3.4-2.14-3.44-2.08-3.49-2.01-3.54-1.95-3.57-1.87-3.62-1.82-3.66-1.74-3.7-1.67-3.74-1.6-3.78-1.53-3.81-1.45-3.86-1.39-3.89-1.3-3.92-1.24-3.96-1.15-3.99-1.08-4.03-1-4.06-.93-4.09-.84-4.12-.76-4.15-.68-4.18-.6-4.2-.51-4.24-.44-4.26-.34-4.29-.26L916.363 943.749l4.287.258 4.261.345 4.235.431 4.207.514 4.18.599 4.149.68 4.121.762 4.09.842 4.058.924 4.025 1 3.994 1.08 3.959 1.157 3.925 1.232 3.889 1.309 3.853 1.383 3.815 1.455 3.778 1.53 3.739 1.6 3.7 1.671 3.659 1.741 3.618 1.811 3.575 1.879 3.53 1.945 3.49 2.013 3.45 2.077 3.4 2.143 3.36 2.206 3.3 2.269 3.26 2.33 3.22 2.392 3.16 2.452z"/><path id="_302153616" class="fil1" d="m1135.19 1056.91 1135.89 1135.88-1.26.34-1.25.35-1.25.35-1.25.36-1.25.36-1.24.38-1.24.38-1.23.38-1.24.4-1.22.4-1.23.4-1.23.42-1.22.42-1.21.42-1.22.44-1.21.44-1.21.45-1.2.45-1.2.46-1.2.46-1.2.48-1.19.48-1.19.48-1.18.49-1.18.5-1.18.51-1.18.51-1.17.52-1.17.52-1.16.53-1.16.54-1.16.54-1135.88-1135.88 1.15-.55 1.17-.53 1.16-.53 1.17-.53 1.17-.51 1.18-.51 1.17-.51 1.19-.5 1.18-.49 1.19-.49 1.19-.48 1.2-.47 1.2-.47 1.2-.45 1.2-.46 1.21-.44 1.21-.44 1.22-.44 1.21-.43 1.22-.41 1.23-.42 1.22-.41 1.23-.4 1.24-.39 1.23-.39 1.24-.38 1.24-.37 1.25-.36 1.25-.36 1.25-.36 1.25-.34z"/><path id="_302153544" class="fil1" d="M916.363 943.749 2052.24 2079.63l-5.12-.19-5.09-.07-5.07.05-5.04.18-5.01.3-4.98.42-4.95.54-4.92.65-4.88.78-4.84.88-4.81 1-4.76 1.11-4.73 1.23-4.68 1.33-4.64 1.43-4.59 1.55-4.54 1.65-4.5 1.75-4.45 1.86-4.39 1.95-4.34 2.06-4.29 2.15-4.23 2.25-4.17 2.35-4.11 2.44-4.05 2.53-3.99 2.62-3.92 2.71-3.86 2.81-3.79 2.88-3.73 2.98-3.65 3.06L772.238 992.983l3.654-3.058 3.722-2.974 3.793-2.888 3.859-2.801 3.923-2.712 3.989-2.623 4.051-2.533 4.113-2.439 4.17-2.345 4.23-2.25 4.286-2.153 4.34-2.057 4.394-1.956 4.446-1.855 4.496-1.753 4.545-1.65 4.592-1.544 4.638-1.438 4.682-1.331 4.726-1.221 4.766-1.112 4.806-.999 4.843-.887 4.881-.771 4.915-.656 4.95-.538 4.981-.42 5.011-.3 5.041-.178 5.069-.056 5.094.069z"/><path id="_302153760" class="fil1" d="M772.238 992.983 1908.12 2128.87l-2.97 2.59-2.92 2.65-2.86 2.7-2.82 2.76-2.76 2.81-2.71 2.86-2.66 2.92-2.6 2.97-2.54 3.02-2.49 3.07-2.43 3.11-2.37 3.17-2.32 3.21-2.25 3.26-2.19 3.31-2.13 3.35-2.06 3.39-2.01 3.44-1.93 3.48-1.88 3.53-1.8 3.56-1.74 3.61-1.67 3.64-1.6 3.68-1.53 3.72-1.47 3.76-1.39 3.8-1.31 3.83-1.25 3.86-1.17 3.9-1.09 3.94-1.02 3.96L706.296 1099.85l1.02-3.97 1.096-3.93 1.169-3.9 1.245-3.87 1.317-3.83 1.39-3.79 1.462-3.76 1.532-3.72 1.602-3.68 1.67-3.65 1.738-3.6 1.806-3.57 1.872-3.52 1.938-3.48 2.002-3.44 2.066-3.39 2.128-3.35 2.191-3.31 2.253-3.26 2.311-3.21 2.372-3.17 2.43-3.12 2.488-3.06 2.544-3.02 2.601-2.97 2.656-2.92 2.71-2.86 2.763-2.81 2.816-2.76 2.868-2.706 2.918-2.648z"/><path id="_302153256" class="fil1" d="M706.296 1099.85 1842.18 2235.73l-.67-.16-.66-.16-.67-.16-.67-.16-.66-.15-.67-.16-.67-.15-.67-.14L700.956 1098.6l.67.15.67.15.668.15.668.16.667.15.666.16.666.16z"/><path id="_302153424" class="fil1" d="M700.956 1098.6 1836.84 2234.49l-2.02-.43-2.03-.41-2.05-.39-2.06-.37-2.07-.35-2.08-.33-2.09-.31-2.11-.29-2.12-.27-2.13-.25-2.14-.23-2.16-.2-2.17-.19-2.17-.16-2.19-.14-2.2-.13L667.164 1094.16l2.201.12 2.19.15 2.178.16 2.168.19 2.154.2 2.144.23 2.13.25 2.119.27 2.107.29 2.094.3 2.084.33 2.069.36 2.058.36 2.045.39 2.032.41z"/><path id="_302153448" class="fil1" d="M667.164 1094.16 1803.05 2230.04l-1.94-.08-1.92-.07-1.93-.06-1.92-.03-1.92-.02-1.91.01-1.92.02-1.9.03-1.9.06-1.9.07-1.9.09-1.89.1-1.89.13-1.88.14-1.88.15-1.87.18L636.7 1094.87l1.873-.17 1.878-.16 1.883-.14 1.886-.12 1.891-.11 1.894-.08 1.899-.08 1.903-.05 1.906-.04 1.912-.02h1.914l1.918.02 1.922.03 1.925.05 1.928.07z"/><path id="_302153208" class="fil1" d="m1512.99 1023.11 1135.88 1135.88-.34 5.32-.46 5.27-.59 5.22-.72 5.18-.85 5.12-.97 5.07-1.09 5.02-1.21 4.97-1.33 4.91-1.44 4.86-1.56 4.79-1.68 4.74-1.79 4.68-1.89 4.62-2.01 4.56-2.11 4.5-2.22 4.43-2.32 4.36-2.43 4.3-2.52 4.23-2.63 4.17-2.72 4.09-2.82 4.02-2.91 3.95-3 3.88-3.09 3.8-3.19 3.73-3.26 3.66-3.36 3.57-3.44 3.49-3.52 3.42-3.6 3.34-1135.89-1135.89 3.61-3.33 3.52-3.42 3.44-3.49 3.35-3.58 3.27-3.65 3.19-3.73 3.09-3.8 3-3.88 2.91-3.95 2.82-4.02 2.72-4.1 2.63-4.16 2.52-4.23 2.43-4.3 2.32-4.37 2.22-4.43 2.11-4.49 2.01-4.56 1.89-4.62 1.79-4.68 1.67-4.74 1.57-4.8 1.44-4.85 1.33-4.91 1.21-4.97 1.09-5.02.97-5.07.85-5.12.71-5.18.6-5.22.46-5.28z"/><path id="_302153592" class="fil1" d="M1459.31 872.751 2595.19 2008.63l3.31 3.76 3.23 3.83 3.13 3.91 3.04 3.98 2.95 4.06 2.85 4.13 2.75 4.2 2.65 4.26 2.55 4.33 2.45 4.4 2.34 4.46 2.24 4.52 2.13 4.57 2.03 4.64 1.91 4.69 1.8 4.75 1.69 4.8 1.57 4.84 1.45 4.9 1.34 4.95 1.22 4.98 1.09 5.04.98 5.07.85 5.12.72 5.15.59 5.19.47 5.23.34 5.26.2 5.29.07 5.32-.06 5.35-.2 5.38-1135.88-1135.88.2-5.38.06-5.35-.07-5.32-.2-5.29-.34-5.261-.47-5.227-.59-5.191-.72-5.154-.85-5.115-.98-5.076-1.09-5.033-1.22-4.989-1.34-4.946-1.45-4.897-1.58-4.848-1.68-4.798-1.8-4.745-1.91-4.692-2.03-4.635-2.13-4.578-2.24-4.519-2.34-4.459-2.45-4.396-2.55-4.331-2.65-4.265-2.75-4.198-2.85-4.128-2.95-4.057-3.04-3.984-3.13-3.909-3.23-3.833z"/><path id="_302153112" class="fil1" d="M1038.22 1031.75 2174.1 2167.63l2.13 2.15 2.11 2.18 2.07 2.21 2.03 2.24 2 2.27 1.97 2.31 1.93 2.33 1.89 2.36 1.86 2.4 1.83 2.42 1.78 2.45 1.75 2.47 1.71 2.51 1.67 2.53 1.64 2.56 1.6 2.58 1.55 2.61 1.52 2.64 1.48 2.66 1.44 2.68 1.4 2.71 1.35 2.73 1.32 2.76 1.27 2.78 1.23 2.8 1.19 2.82L1081.94 1096.9l-1.19-2.82-1.23-2.8-1.28-2.78-1.31-2.75-1.36-2.73-1.39-2.71-1.44-2.69-1.48-2.66-1.52-2.63-1.55-2.61-1.6-2.58-1.64-2.56-1.67-2.53-1.71-2.51-1.75-2.48-1.79-2.44-1.82-2.43-1.86-2.39-1.89-2.36-1.93-2.33-1.97-2.31-2-2.27-2.03-2.24-2.07-2.21-2.11-2.18z"/><path id="_302153160" class="fil1" d="m1323.6 1453.99 1135.88 1135.88-3.93 3.47-4.01 3.38-4.09 3.29-4.18 3.19-4.25 3.1-4.33 3-4.4 2.9-4.48 2.81-4.55 2.7-4.61 2.61-4.69 2.5-4.75 2.39-4.81 2.3-4.87 2.18-4.94 2.08-4.99 1.97-5.05 1.86-5.1 1.75-5.15 1.63-5.21 1.53-5.25 1.4-5.3 1.29-5.35 1.17-5.39 1.06-5.42.93-5.47.81-5.51.69-5.54.56-5.58.44-5.61.32-5.64.18-5.66.06-1135.89-1135.89 5.67-.05 5.64-.19 5.61-.31 5.57-.44 5.55-.56 5.5-.69 5.47-.81 5.43-.94 5.39-1.05 5.35-1.17 5.3-1.29 5.25-1.41 5.21-1.52 5.15-1.63 5.1-1.75 5.05-1.86 4.99-1.97 4.94-2.08 4.87-2.19 4.81-2.29 4.75-2.4 4.68-2.5 4.62-2.6 4.55-2.7 4.48-2.81 4.4-2.9 4.33-3 4.25-3.1 4.18-3.19 4.09-3.29 4.01-3.38z"/><path id="_302153976" class="fil1" d="m1165.48 1513.53 1135.89 1135.89-513.2-.88L652.29 1512.66z"/><path id="_302154216" class="fil1" d="m652.29 1512.66 1135.88 1135.88-1.23-.01-1.19-.01-1.16-.01-1.12-.03-1.08-.02-1.05-.04-1.01-.04-.97-.04L643.477 1512.46l.973.04 1.009.04 1.046.03 1.083.03 1.12.02 1.157.02 1.195.01z"/><path id="_302154048" class="fil1" d="M643.477 1512.46 1779.36 2648.34l-4.79-.31-4.75-.42-4.71-.55-4.68-.67-4.63-.78-4.59-.91-4.54-1.01-4.5-1.13-4.46-1.25-4.4-1.35-4.36-1.46-4.31-1.56-4.26-1.68-4.2-1.77-4.15-1.87-4.1-1.98-4.04-2.07-3.98-2.17-3.93-2.27-3.86-2.36-3.81-2.44-3.74-2.54-3.68-2.63-3.61-2.71-3.55-2.8-3.48-2.88L534.369 1468.89l3.481 2.88 3.548 2.8 3.614 2.71 3.678 2.63 3.743 2.53 3.803 2.45 3.866 2.36 3.924 2.26 3.983 2.17 4.041 2.08 4.096 1.97 4.151 1.88 4.205 1.77 4.257 1.67 4.308 1.57 4.359 1.46 4.406 1.35 4.454 1.24 4.5 1.13 4.545 1.02 4.589.9 4.631.79 4.673.67 4.713.55 4.75.42z"/><path id="_302154336" class="fil1" d="M1393.95 1305.82 2529.83 2441.7l-.35 5.58-.49 5.53-.62 5.48-.75 5.43-.89 5.37-1.01 5.32-1.15 5.27-1.27 5.21-1.39 5.15-1.52 5.09-1.64 5.03-1.75 4.97-1.88 4.91-1.99 4.85-2.1 4.78-2.22 4.71-2.33 4.65-2.43 4.58-2.55 4.51-2.64 4.44-2.76 4.36-2.85 4.3-2.96 4.22-3.05 4.14-3.15 4.07-3.24 3.99-3.34 3.91-3.43 3.83-3.52 3.75-3.61 3.66-3.69 3.59-3.78 3.49L1323.6 1453.99l3.78-3.49 3.69-3.59 3.61-3.66 3.52-3.75 3.43-3.83 3.34-3.91 3.24-3.99 3.15-4.07 3.05-4.15 2.96-4.22 2.85-4.29 2.75-4.37 2.65-4.43 2.55-4.51 2.43-4.58 2.33-4.65 2.22-4.71 2.1-4.78 1.99-4.85 1.88-4.91 1.75-4.97 1.64-5.03 1.52-5.09 1.39-5.15 1.27-5.21 1.14-5.27 1.02-5.32.89-5.37.75-5.43.62-5.48.49-5.53z"/><path id="_302154552" class="fil1" d="m1334.08 1144.26 1135.88 1135.88 3.57 3.86-1135.88-1135.88z"/><path id="_302154360" class="fil1" d="M1337.65 1148.12 2473.53 2284l3.47 3.94 3.39 4.02 3.28 4.1 3.19 4.17 3.09 4.26 2.99 4.33 2.89 4.4 2.78 4.48 2.67 4.54 2.57 4.61 2.46 4.68 2.35 4.74 2.23 4.8 2.13 4.86 2 4.92 1.89 4.98 1.77 5.03 1.65 5.09 1.52 5.13 1.41 5.19 1.27 5.23 1.15 5.28 1.02 5.33.9 5.36.75 5.41.63 5.44.49 5.49.35 5.51.22 5.55.07 5.58-.07 5.61-.21 5.64-1135.88-1135.88.21-5.64.07-5.61-.08-5.58-.21-5.55-.35-5.52-.49-5.48-.63-5.44-.76-5.41-.89-5.37-1.02-5.32-1.15-5.28-1.27-5.23-1.41-5.19-1.52-5.14-1.65-5.08-1.77-5.03-1.89-4.98-2.01-4.92-2.12-4.86-2.23-4.81-2.35-4.74-2.46-4.67-2.57-4.61-2.67-4.55-2.78-4.47-2.89-4.4-2.99-4.33-3.09-4.26-3.19-4.18-3.28-4.1-3.39-4.02z"/><path id="_308725000" class="fil1" d="M1420.41 614.34c47.491 2.383 89.524 23.797 119.088 56.484 29.567 32.693 46.664 76.623 44.283 124.039-2.359 47.011-23.28 87.557-55.331 116.544a175.388 175.388 0 0 1-10.792 8.996 232.36 232.36 0 0 0-40.847-63.484c-41.452-45.835-98.941-73.109-160.673-76.207-24.004-1.205-48.17 1.293-71.395 7.487a231.563 231.563 0 0 0-17.602 5.45 212.614 212.614 0 0 0-51.174-61.682c-35.127-28.905-78.284-45.552-123.715-47.831-53.918-2.706-107.107 15.468-148.1 50.591-21.647 18.547-39.226 41.146-51.797 66.383.02-2.22.075-4.25.167-6.084 2.145-42.757 21.424-80.602 50.854-107.218 29.436-26.619 68.985-42.013 111.667-39.872 8.865.445 17.363 1.58 25.45 3.345 1.344.294 2.685.607 4.02.938 7.882-31.983 25.615-59.879 49.658-80.477 29.059-24.899 67.324-39.147 108.535-37.076 34.538 1.733 65.868 14.641 90.667 35.048 19.656 16.175 35.21 37.063 45 60.832a171.742 171.742 0 0 1 29.128-10.662c16.8-4.48 34.587-6.463 52.907-5.544zm92.576 408.766c-2.86 56.983-28.22 106.132-67.07 141.267-12.016 10.867-25.323 20.38-39.646 28.358-10.145-25.203-24.669-48.26-42.68-68.176-39.257-43.407-95.075-71.841-158.138-75.005-24.327-1.222-47.945 1.411-70.256 7.36a228.16 228.16 0 0 0-38.677 14.158c-13.004-31.561-33.655-59.298-59.757-80.778-32.932-27.098-74.535-44.24-120.398-46.541C861.64 941 810.827 959.92 772.24 992.983c-31.925 27.352-55.474 64.395-65.942 106.865-1.773-.44-3.553-.854-5.34-1.244-10.736-2.343-22.022-3.851-33.793-4.442a207.072 207.072 0 0 0-30.464.713 191.896 191.896 0 0 1-10.317-62.347c.005-3.422.077-6.501.213-9.225 2.6-51.829 25.969-97.7 61.642-129.964 35.68-32.266 83.62-50.927 135.357-48.33 10.745.54 21.047 1.916 30.848 4.054 1.63.357 3.255.735 4.873 1.136 9.556-38.767 31.051-72.58 60.193-97.55 35.224-30.179 81.607-47.449 131.56-44.94 41.865 2.1 79.84 17.748 109.903 42.483 23.826 19.607 42.676 44.927 54.546 73.736a208.324 208.324 0 0 1 35.307-12.924c20.365-5.43 41.923-7.833 64.13-6.719 57.566 2.89 108.518 28.844 144.353 68.466 35.839 39.629 56.564 92.878 53.678 150.354zm-119.036 282.715c-3 59.769-29.6 111.319-70.349 148.172-41.448 37.487-97.524 59.643-158.115 59.54l-513.194-.876c-3.332-.006-6.268-.073-8.813-.2-51.278-2.574-96.357-26.457-128.516-62.497-31.842-35.682-51.047-83.456-50.961-134.257.006-3.589.08-6.819.223-9.676 2.73-54.363 27.239-102.476 64.657-136.317 37.423-33.845 87.706-53.417 141.973-50.693 11.271.564 22.076 2.009 32.356 4.253 1.71.373 3.414.77 5.112 1.19 10.023-40.661 32.569-76.129 63.136-102.317 36.945-31.656 85.597-49.77 137.992-47.14 43.911 2.205 83.745 18.616 115.274 44.561 24.992 20.567 44.764 47.124 57.214 77.341a218.589 218.589 0 0 1 37.03-13.556c21.364-5.696 43.976-8.216 67.267-7.047 60.38 3.03 113.824 30.254 151.41 71.814 37.591 41.564 59.33 97.417 56.303 157.706z"/></g></g><path d="M1024 0c565.541 0 1024 458.459 1024 1024 0 565.541-458.459 1024-1024 1024C458.459 2048 0 1589.541 0 1024 0 458.459 458.459 0 1024 0z" style="fill:none"/><path d="M1420.41 614.34c47.491 2.383 89.524 23.797 119.088 56.484 29.567 32.693 46.664 76.623 44.283 124.039-2.359 47.011-23.28 87.557-55.331 116.544a175.388 175.388 0 0 1-10.792 8.996 232.36 232.36 0 0 0-40.847-63.484c-41.452-45.835-98.941-73.109-160.673-76.207-24.004-1.205-48.17 1.293-71.395 7.487a231.563 231.563 0 0 0-17.602 5.45 212.614 212.614 0 0 0-51.174-61.682c-35.127-28.905-78.284-45.552-123.715-47.831-53.918-2.706-107.107 15.468-148.1 50.591-21.647 18.547-39.226 41.146-51.797 66.383.02-2.22.075-4.25.167-6.084 2.145-42.757 21.424-80.602 50.854-107.218 29.436-26.619 68.985-42.013 111.667-39.872 8.865.445 17.363 1.58 25.45 3.345 1.344.294 2.685.607 4.02.938 7.882-31.983 25.615-59.879 49.658-80.477 29.059-24.899 67.324-39.147 108.535-37.076 34.538 1.733 65.868 14.641 90.667 35.048 19.656 16.175 35.21 37.063 45 60.832a171.742 171.742 0 0 1 29.128-10.662c16.8-4.48 34.587-6.463 52.907-5.544z" style="fill:#039be5;fill-rule:nonzero"/><path d="M1314.95 804.285c57.566 2.889 108.517 28.844 144.352 68.466 35.84 39.629 56.564 92.877 53.679 150.354-2.86 56.984-28.22 106.132-67.07 141.267-12.017 10.867-25.323 20.38-39.646 28.358-10.145-25.203-24.669-48.26-42.68-68.176-39.257-43.407-95.075-71.84-158.139-75.005-24.327-1.221-47.944 1.411-70.255 7.36a228.16 228.16 0 0 0-38.678 14.158c-13.004-31.56-33.654-59.298-59.756-80.778-32.932-27.098-74.535-44.24-120.398-46.54-54.723-2.75-105.537 16.17-144.124 49.233-31.926 27.352-55.475 64.395-65.943 106.865-1.773-.439-3.552-.854-5.34-1.243-10.736-2.344-22.021-3.852-33.792-4.442a207.072 207.072 0 0 0-30.464.712 191.896 191.896 0 0 1-10.317-62.347c.005-3.422.077-6.501.213-9.225 2.6-51.829 25.968-97.7 61.641-129.964 35.68-32.266 83.62-50.926 135.357-48.33 10.746.54 21.048 1.917 30.848 4.054 1.632.357 3.256.735 4.874 1.137 9.556-38.768 31.05-72.582 60.192-97.55 35.224-30.18 81.607-47.45 131.561-44.941 41.864 2.1 79.84 17.748 109.902 42.483 23.827 19.607 42.677 44.927 54.547 73.736a208.324 208.324 0 0 1 35.307-12.923c20.364-5.431 41.923-7.833 64.13-6.72z" style="fill:#29b6f6;fill-rule:nonzero"/><path d="M1186.24 1076.3c60.38 3.03 113.824 30.254 151.41 71.813 37.591 41.565 59.33 97.418 56.303 157.704-3 59.77-29.6 111.32-70.349 148.173-41.448 37.486-97.522 59.644-158.115 59.541l-513.194-.876c-3.332-.006-6.268-.074-8.812-.201-51.279-2.575-96.358-26.457-128.517-62.497-31.841-35.681-51.047-83.454-50.961-134.257.006-3.588.081-6.819.224-9.676 2.729-54.361 27.238-102.476 64.656-136.317 37.424-33.844 87.707-53.416 141.973-50.693 11.272.565 22.076 2.01 32.357 4.253 1.71.374 3.413.77 5.112 1.191 10.022-40.663 32.568-76.13 63.135-102.318 36.945-31.656 85.597-49.77 137.992-47.14 43.912 2.204 83.745 18.616 115.274 44.562 24.993 20.566 44.764 47.122 57.214 77.34a218.462 218.462 0 0 1 37.033-13.556c21.36-5.695 43.973-8.216 67.265-7.047z" style="fill:#81d4fa;fill-rule:nonzero"/></g></svg>